<?xml version="1.0" encoding="UTF-8"?>
<svg id="Layer_1" xmlns="http://www.w3.org/2000/svg" version="1.1" viewBox="0 0 16 16">
  <!-- Generator: Adobe Illustrator 29.5.0, SVG Export Plug-In . SVG Version: 2.1.0 Build 137)  -->
  <defs>
    <style>
      .st0 {
        fill: #fff;
      }
    </style>
  </defs>
  <path d="M6.45,5.88l-.79-.79,1.83-1.83c.22-.22.22-.59,0-.81s-.59-.22-.81,0l-1.83,1.83c-.11.11-.17.25-.17.41s.06.3.17.41l-.79.79c-.32-.32-.5-.74-.5-1.2s.18-.88.5-1.2l1.83-1.83c.66-.66,1.73-.66,2.39,0,.66.66.66,1.73,0,2.39l-1.83,1.83Z"/>
  <path d="M2.28,10.37c-.43,0-.87-.16-1.2-.49-.66-.66-.66-1.73,0-2.39l1.83-1.83.79.79-1.83,1.83c-.22.22-.22.59,0,.81.22.22.59.22.81,0l1.83-1.83c.11-.11.17-.25.17-.41s-.06-.3-.17-.41l.79-.79c.32.32.5.74.5,1.2s-.18.88-.5,1.2l-1.83,1.83c-.33.33-.76.5-1.2.5Z"/>
  <rect x="12.89" y="5.54" width="3.52" height="22.38" rx="1.32" ry="1.32" transform="translate(-7.51 14.85) rotate(-43.95)"/>
  <rect class="st0" x="8.82" y="9.17" width="1.37" height="4.31" transform="translate(-5.2 9.77) rotate(-43.95)"/>
  <path d="M14.65,5.48c-1.84,0-3.33-1.69-3.33-3.77,0,2.08-1.49,3.77-3.33,3.77,1.84,0,3.33,1.69,3.33,3.77,0-2.08,1.49-3.77,3.33-3.77Z"/>
</svg>